<?xml version="1.0" encoding="utf-8"?>
<!-- Generator: Adobe Illustrator 17.0.0, SVG Export Plug-In . SVG Version: 6.00 Build 0)  -->
<!DOCTYPE svg PUBLIC "-//W3C//DTD SVG 1.1//EN" "http://www.w3.org/Graphics/SVG/1.1/DTD/svg11.dtd">
<svg version="1.1" id="Capa_1" xmlns="http://www.w3.org/2000/svg" xmlns:xlink="http://www.w3.org/1999/xlink" x="0px" y="0px"
	 width="595.28px" height="841.89px" viewBox="0 0 595.28 841.89" enable-background="new 0 0 595.28 841.89" xml:space="preserve">
<g>
	<g>
		<path fill="#CE3A00" d="M579.364,577.946c-14.621-14.621-38.293-19.495-57.091-11.836l-77.978-77.282
			c40.382-86.333,10.443-203.3-74.497-288.937c-50.129-50.129-107.22-76.586-164.311-76.586
			c-51.521,0-102.346,22.279-142.728,62.661c-87.725,87.725-82.156,210.959,13.925,307.735
			c58.484,58.484,133.677,92.599,205.389,92.599c29.938,0,58.484-6.266,82.852-17.406l77.978,77.978
			c-8.355,18.798-4.177,41.078,11.14,56.395c9.747,9.747,23.672,15.317,37.597,15.317s27.153-5.57,37.597-15.317
			c9.051-9.051,14.621-21.583,15.317-34.812c13.228-0.696,25.761-6.266,34.812-15.317c9.747-9.747,15.317-23.672,15.317-37.597
			S589.111,588.389,579.364,577.946z M360.05,543.83c-22.976,11.836-49.433,18.102-78.674,18.102
			c-65.446,0.696-134.373-30.634-188.679-84.941C4.971,389.266-0.599,282.046,78.772,202.676
			c36.204-36.204,80.067-55.699,126.018-55.699c51.521,0,102.346,24.368,147.602,69.623
			c79.371,79.371,107.22,191.464,67.535,267.354L360.05,543.83z M562.655,636.429c-6.962,6.962-18.102,10.444-28.546,7.659
			c-4.177-1.392-8.355,0-11.14,2.785c-2.785,2.785-4.177,6.962-2.785,11.14c2.785,10.443,0,20.887-7.659,28.546
			c-11.14,11.14-30.634,11.14-41.774,0c-9.747-9.747-11.14-25.064-4.177-36.9c2.785-4.874,2.089-10.443-1.392-14.621l-81.459-81.459
			l45.951-45.951l81.459,81.459c4.177,4.177,9.747,4.874,14.621,1.392c11.14-6.962,27.153-5.57,36.9,4.177
			c5.57,5.57,8.355,13.228,8.355,20.887C571.009,623.201,568.224,630.86,562.655,636.429z"/>
	</g>
</g>
<g>
	<g>
		<path fill="#CE3A00" d="M389.988,378.127c-10.443-45.255-34.812-87.725-70.32-123.233c-20.887-20.887-43.167-36.9-66.142-47.344
			c-6.266-2.785-13.228,0-15.317,5.57c-2.785,6.266,0,13.228,5.57,15.317c20.887,9.747,40.382,23.672,59.18,42.47
			c32.027,32.723,55.003,72.408,64.054,112.094c1.392,5.57,6.266,9.051,11.14,9.051c0.696,0,2.089,0,2.785,0
			C387.204,390.659,391.381,384.393,389.988,378.127z"/>
	</g>
</g>
</svg>
